<mxfile host="app.diagrams.net" modified="2023-09-28T05:29:20.001Z" agent="Mozilla/5.0 (Windows NT 10.0; Win64; x64) AppleWebKit/537.36 (KHTML, like Gecko) Chrome/117.0.0.0 Safari/537.36" etag="I_xcUPRN6769Bv-1extE" version="21.8.2" type="device">
  <diagram name="Page-1" id="0783ab3e-0a74-02c8-0abd-f7b4e66b4bec">
    <mxGraphModel dx="30" dy="-616" grid="1" gridSize="10" guides="1" tooltips="1" connect="1" arrows="1" fold="1" page="1" pageScale="1" pageWidth="850" pageHeight="1100" background="none" math="0" shadow="0">
      <root>
        <mxCell id="0" />
        <mxCell id="1" parent="0" />
        <mxCell id="y2vtiE2_3SS2VwUHVPp7-153" value="" style="group" parent="1" vertex="1" connectable="0">
          <mxGeometry x="1060" y="1250" width="6200" height="10960" as="geometry" />
        </mxCell>
        <mxCell id="3HCPjBEFk6575z2NG5k7-16" value="" style="shape=table;startSize=0;container=1;collapsible=0;childLayout=tableLayout;movable=1;resizable=1;rotatable=1;deletable=1;editable=1;locked=0;connectable=1;strokeWidth=25;strokeColor=#000033;" parent="y2vtiE2_3SS2VwUHVPp7-153" vertex="1">
          <mxGeometry width="6200" height="10960" as="geometry" />
        </mxCell>
        <mxCell id="3HCPjBEFk6575z2NG5k7-17" value="" style="shape=tableRow;horizontal=0;startSize=0;swimlaneHead=0;swimlaneBody=0;strokeColor=#3700CC;top=0;left=0;bottom=0;right=0;collapsible=0;dropTarget=0;fillColor=#6a00ff;points=[[0,0.5],[1,0.5]];portConstraint=eastwest;fontColor=#ffffff;" parent="3HCPjBEFk6575z2NG5k7-16" vertex="1">
          <mxGeometry width="6200" height="380" as="geometry" />
        </mxCell>
        <mxCell id="3HCPjBEFk6575z2NG5k7-18" value="&lt;font style=&quot;font-size: 77px;&quot;&gt;&lt;b&gt;User&lt;/b&gt;&lt;/font&gt;" style="shape=partialRectangle;html=1;whiteSpace=wrap;connectable=0;strokeColor=#82b366;overflow=hidden;fillColor=#d5e8d4;top=0;left=0;bottom=0;right=0;pointerEvents=1;strokeWidth=1;" parent="3HCPjBEFk6575z2NG5k7-17" vertex="1">
          <mxGeometry width="1572" height="380" as="geometry">
            <mxRectangle width="1572" height="380" as="alternateBounds" />
          </mxGeometry>
        </mxCell>
        <mxCell id="3HCPjBEFk6575z2NG5k7-19" value="&lt;b&gt;&lt;font style=&quot;font-size: 77px;&quot;&gt;System&lt;/font&gt;&lt;/b&gt;" style="shape=partialRectangle;html=1;whiteSpace=wrap;connectable=0;strokeColor=#82b366;overflow=hidden;fillColor=#d5e8d4;top=0;left=0;bottom=0;right=0;pointerEvents=1;shadow=0;" parent="3HCPjBEFk6575z2NG5k7-17" vertex="1">
          <mxGeometry x="1572" width="4628" height="380" as="geometry">
            <mxRectangle width="4628" height="380" as="alternateBounds" />
          </mxGeometry>
        </mxCell>
        <mxCell id="3HCPjBEFk6575z2NG5k7-24" value="" style="shape=tableRow;horizontal=0;startSize=0;swimlaneHead=0;swimlaneBody=0;strokeColor=#2D7600;top=0;left=0;bottom=0;right=0;collapsible=0;dropTarget=0;fillColor=#60a917;points=[[0,0.5],[1,0.5]];portConstraint=eastwest;fontColor=#ffffff;" parent="3HCPjBEFk6575z2NG5k7-16" vertex="1">
          <mxGeometry y="380" width="6200" height="270" as="geometry" />
        </mxCell>
        <mxCell id="3HCPjBEFk6575z2NG5k7-25" value="&lt;b&gt;&lt;font style=&quot;font-size: 77px;&quot;&gt;Stork Portfolio Manager&amp;nbsp;&lt;/font&gt;&lt;/b&gt;" style="shape=partialRectangle;html=1;whiteSpace=wrap;connectable=1;strokeColor=#b85450;overflow=hidden;fillColor=#f8cecc;top=0;left=0;bottom=0;right=0;pointerEvents=1;movable=1;resizable=1;rotatable=1;deletable=1;editable=1;locked=0;" parent="3HCPjBEFk6575z2NG5k7-24" vertex="1">
          <mxGeometry width="1572" height="270" as="geometry">
            <mxRectangle width="1572" height="270" as="alternateBounds" />
          </mxGeometry>
        </mxCell>
        <mxCell id="3HCPjBEFk6575z2NG5k7-26" value="&lt;font style=&quot;font-size: 77px;&quot;&gt;&lt;b&gt;Stocks Portfolio Management System&lt;/b&gt;&lt;/font&gt;" style="shape=partialRectangle;html=1;whiteSpace=wrap;connectable=0;strokeColor=#9673a6;overflow=hidden;fillColor=#e1d5e7;top=0;left=0;bottom=0;right=0;pointerEvents=1;" parent="3HCPjBEFk6575z2NG5k7-24" vertex="1">
          <mxGeometry x="1572" width="4628" height="270" as="geometry">
            <mxRectangle width="4628" height="270" as="alternateBounds" />
          </mxGeometry>
        </mxCell>
        <mxCell id="3HCPjBEFk6575z2NG5k7-37" style="shape=tableRow;horizontal=0;startSize=0;swimlaneHead=0;swimlaneBody=0;strokeColor=inherit;top=0;left=0;bottom=0;right=0;collapsible=0;dropTarget=0;fillColor=none;points=[[0,0.5],[1,0.5]];portConstraint=eastwest;strokeWidth=22;" parent="3HCPjBEFk6575z2NG5k7-16" vertex="1">
          <mxGeometry y="650" width="6200" height="10310" as="geometry" />
        </mxCell>
        <mxCell id="3HCPjBEFk6575z2NG5k7-38" style="shape=partialRectangle;html=1;whiteSpace=wrap;connectable=1;strokeColor=inherit;overflow=hidden;fillColor=none;top=0;left=0;bottom=0;right=0;pointerEvents=1;movable=1;resizable=1;rotatable=1;deletable=1;editable=1;locked=0;" parent="3HCPjBEFk6575z2NG5k7-37" vertex="1">
          <mxGeometry width="1572" height="10310" as="geometry">
            <mxRectangle width="1572" height="10310" as="alternateBounds" />
          </mxGeometry>
        </mxCell>
        <mxCell id="3HCPjBEFk6575z2NG5k7-39" style="shape=partialRectangle;html=1;whiteSpace=wrap;connectable=0;strokeColor=inherit;overflow=hidden;fillColor=none;top=0;left=0;bottom=0;right=0;pointerEvents=1;" parent="3HCPjBEFk6575z2NG5k7-37" vertex="1">
          <mxGeometry x="1572" width="4628" height="10310" as="geometry">
            <mxRectangle width="4628" height="10310" as="alternateBounds" />
          </mxGeometry>
        </mxCell>
        <mxCell id="y2vtiE2_3SS2VwUHVPp7-15" value="" style="group" parent="y2vtiE2_3SS2VwUHVPp7-153" vertex="1" connectable="0">
          <mxGeometry x="700" y="740" width="160" height="470" as="geometry" />
        </mxCell>
        <mxCell id="y2vtiE2_3SS2VwUHVPp7-13" value="" style="ellipse;html=1;shape=startState;fillColor=#000000;strokeColor=#ff0000;" parent="y2vtiE2_3SS2VwUHVPp7-15" vertex="1">
          <mxGeometry width="160.00000000000003" height="156.66666666666666" as="geometry" />
        </mxCell>
        <mxCell id="y2vtiE2_3SS2VwUHVPp7-14" value="" style="edgeStyle=orthogonalEdgeStyle;html=1;verticalAlign=bottom;endArrow=open;endSize=8;strokeColor=#ff0000;rounded=0;strokeWidth=6;" parent="y2vtiE2_3SS2VwUHVPp7-15" source="y2vtiE2_3SS2VwUHVPp7-13" edge="1">
          <mxGeometry relative="1" as="geometry">
            <mxPoint x="80.00000000000001" y="470" as="targetPoint" />
          </mxGeometry>
        </mxCell>
        <mxCell id="y2vtiE2_3SS2VwUHVPp7-21" value="&lt;font style=&quot;font-size: 48px;&quot;&gt;Login to System&lt;/font&gt;" style="rounded=1;whiteSpace=wrap;html=1;arcSize=40;fontColor=#000000;fillColor=#ffffc0;strokeColor=#ff0000;" parent="y2vtiE2_3SS2VwUHVPp7-153" vertex="1">
          <mxGeometry x="360" y="1200" width="850" height="260" as="geometry" />
        </mxCell>
        <mxCell id="y2vtiE2_3SS2VwUHVPp7-23" value="&lt;p style=&quot;margin-left:1.0in;mso-add-space:auto;&lt;br/&gt;text-indent:-.25in;mso-list:l0 level1 lfo1&quot; class=&quot;MsoListParagraph&quot;&gt;&lt;font style=&quot;font-size: 52px;&quot;&gt;&lt;span style=&quot;line-height: 107%; font-family: &amp;quot;Times New Roman&amp;quot;, serif;&quot;&gt;Update&lt;br&gt;Customer Details&lt;/span&gt;&lt;/font&gt;&lt;span style=&quot;font-size:14.0pt;line-height:107%;&lt;br/&gt;font-family:&amp;quot;Times New Roman&amp;quot;,serif&quot;&gt;&lt;/span&gt;&lt;/p&gt;" style="rounded=1;whiteSpace=wrap;html=1;arcSize=40;fontColor=#000000;fillColor=#ffffc0;strokeColor=#ff0000;" parent="y2vtiE2_3SS2VwUHVPp7-153" vertex="1">
          <mxGeometry x="2900" y="4900" width="850" height="260" as="geometry" />
        </mxCell>
        <mxCell id="y2vtiE2_3SS2VwUHVPp7-42" style="edgeStyle=orthogonalEdgeStyle;rounded=0;orthogonalLoop=1;jettySize=auto;html=1;entryX=0.5;entryY=1;entryDx=0;entryDy=0;strokeWidth=10;" parent="y2vtiE2_3SS2VwUHVPp7-153" source="y2vtiE2_3SS2VwUHVPp7-26" target="y2vtiE2_3SS2VwUHVPp7-21" edge="1">
          <mxGeometry relative="1" as="geometry" />
        </mxCell>
        <mxCell id="y2vtiE2_3SS2VwUHVPp7-26" value="&lt;font style=&quot;font-size: 48px;&quot;&gt;Display Error Massage &quot;Login Again&quot;&lt;/font&gt;" style="rounded=1;whiteSpace=wrap;html=1;arcSize=40;fontColor=#000000;fillColor=#ffffc0;strokeColor=#ff0000;" parent="y2vtiE2_3SS2VwUHVPp7-153" vertex="1">
          <mxGeometry x="1600" y="1910" width="850" height="260" as="geometry" />
        </mxCell>
        <mxCell id="y2vtiE2_3SS2VwUHVPp7-28" value="&lt;font style=&quot;font-size: 48px;&quot;&gt;System Display SPM Activities&lt;/font&gt;" style="rounded=1;whiteSpace=wrap;html=1;arcSize=40;fontColor=#000000;fillColor=#ffffc0;strokeColor=#ff0000;" parent="y2vtiE2_3SS2VwUHVPp7-153" vertex="1">
          <mxGeometry x="2140" y="2410" width="850" height="260" as="geometry" />
        </mxCell>
        <mxCell id="F2ZYFkoD8W8sICeqgkWs-1" style="edgeStyle=orthogonalEdgeStyle;rounded=0;orthogonalLoop=1;jettySize=auto;html=1;strokeWidth=10;" edge="1" parent="y2vtiE2_3SS2VwUHVPp7-153" source="y2vtiE2_3SS2VwUHVPp7-29" target="y2vtiE2_3SS2VwUHVPp7-100">
          <mxGeometry relative="1" as="geometry">
            <Array as="points">
              <mxPoint x="2590" y="4040" />
              <mxPoint x="2590" y="4660" />
              <mxPoint x="585" y="4660" />
            </Array>
          </mxGeometry>
        </mxCell>
        <mxCell id="y2vtiE2_3SS2VwUHVPp7-29" value="&lt;p style=&quot;margin-left:1.0in;mso-add-space:auto;&lt;br/&gt;text-indent:-.25in;mso-list:l0 level1 lfo1&quot; class=&quot;MsoListParagraph&quot;&gt;&lt;font style=&quot;font-size: 52px;&quot;&gt;&lt;span style=&quot;line-height: 107%; font-family: &amp;quot;Times New Roman&amp;quot;, serif;&quot;&gt;Add&lt;br&gt;Customer&lt;/span&gt;&lt;/font&gt;&lt;span style=&quot;font-size:14.0pt;line-height:107%;font-family:&amp;quot;Times New Roman&amp;quot;,serif&quot;&gt;&lt;/span&gt;&lt;/p&gt;" style="rounded=1;whiteSpace=wrap;html=1;arcSize=40;fontColor=#000000;fillColor=#ffffc0;strokeColor=#ff0000;" parent="y2vtiE2_3SS2VwUHVPp7-153" vertex="1">
          <mxGeometry x="2900" y="3910" width="850" height="260" as="geometry" />
        </mxCell>
        <mxCell id="y2vtiE2_3SS2VwUHVPp7-30" value="&lt;font style=&quot;font-size: 48px;&quot;&gt;Select Activity&lt;/font&gt;" style="rounded=1;whiteSpace=wrap;html=1;arcSize=40;fontColor=#000000;fillColor=#ffffc0;strokeColor=#ff0000;" parent="y2vtiE2_3SS2VwUHVPp7-153" vertex="1">
          <mxGeometry x="260" y="2410" width="850" height="260" as="geometry" />
        </mxCell>
        <mxCell id="y2vtiE2_3SS2VwUHVPp7-45" style="edgeStyle=orthogonalEdgeStyle;rounded=0;orthogonalLoop=1;jettySize=auto;html=1;entryX=1;entryY=0.5;entryDx=0;entryDy=0;strokeWidth=10;" parent="y2vtiE2_3SS2VwUHVPp7-153" source="y2vtiE2_3SS2VwUHVPp7-28" target="y2vtiE2_3SS2VwUHVPp7-30" edge="1">
          <mxGeometry relative="1" as="geometry" />
        </mxCell>
        <mxCell id="y2vtiE2_3SS2VwUHVPp7-34" style="edgeStyle=orthogonalEdgeStyle;rounded=0;orthogonalLoop=1;jettySize=auto;html=1;entryX=0;entryY=0.5;entryDx=0;entryDy=0;strokeWidth=10;" parent="y2vtiE2_3SS2VwUHVPp7-153" source="y2vtiE2_3SS2VwUHVPp7-33" target="y2vtiE2_3SS2VwUHVPp7-21" edge="1">
          <mxGeometry relative="1" as="geometry" />
        </mxCell>
        <mxCell id="y2vtiE2_3SS2VwUHVPp7-33" value="&lt;font style=&quot;font-size: 48px;&quot;&gt;&lt;b&gt;U Name,Password&lt;/b&gt;&lt;/font&gt;" style="text;html=1;strokeColor=#d79b00;fillColor=#ffe6cc;align=center;verticalAlign=middle;whiteSpace=wrap;rounded=0;" parent="y2vtiE2_3SS2VwUHVPp7-153" vertex="1">
          <mxGeometry x="30" y="830" width="480" height="270" as="geometry" />
        </mxCell>
        <mxCell id="y2vtiE2_3SS2VwUHVPp7-40" style="edgeStyle=orthogonalEdgeStyle;rounded=0;orthogonalLoop=1;jettySize=auto;html=1;exitX=0;exitY=0.5;exitDx=0;exitDy=0;strokeWidth=10;" parent="y2vtiE2_3SS2VwUHVPp7-153" source="y2vtiE2_3SS2VwUHVPp7-35" target="y2vtiE2_3SS2VwUHVPp7-26" edge="1">
          <mxGeometry relative="1" as="geometry" />
        </mxCell>
        <mxCell id="y2vtiE2_3SS2VwUHVPp7-43" style="edgeStyle=orthogonalEdgeStyle;rounded=0;orthogonalLoop=1;jettySize=auto;html=1;exitX=1;exitY=0.5;exitDx=0;exitDy=0;entryX=0.75;entryY=0;entryDx=0;entryDy=0;strokeWidth=10;" parent="y2vtiE2_3SS2VwUHVPp7-153" source="y2vtiE2_3SS2VwUHVPp7-35" target="y2vtiE2_3SS2VwUHVPp7-28" edge="1">
          <mxGeometry relative="1" as="geometry" />
        </mxCell>
        <mxCell id="y2vtiE2_3SS2VwUHVPp7-35" value="&lt;font style=&quot;font-size: 48px;&quot;&gt;If Uname And Password are matched&lt;/font&gt;" style="rhombus;whiteSpace=wrap;html=1;fillColor=#d5e8d4;strokeColor=#82b366;" parent="y2vtiE2_3SS2VwUHVPp7-153" vertex="1">
          <mxGeometry x="1920" y="1000" width="750" height="690" as="geometry" />
        </mxCell>
        <mxCell id="y2vtiE2_3SS2VwUHVPp7-36" style="edgeStyle=orthogonalEdgeStyle;rounded=0;orthogonalLoop=1;jettySize=auto;html=1;entryX=0.5;entryY=0;entryDx=0;entryDy=0;strokeWidth=10;" parent="y2vtiE2_3SS2VwUHVPp7-153" source="y2vtiE2_3SS2VwUHVPp7-21" target="y2vtiE2_3SS2VwUHVPp7-35" edge="1">
          <mxGeometry relative="1" as="geometry">
            <Array as="points">
              <mxPoint x="1670" y="1340" />
              <mxPoint x="1670" y="870" />
              <mxPoint x="2295" y="870" />
            </Array>
          </mxGeometry>
        </mxCell>
        <mxCell id="y2vtiE2_3SS2VwUHVPp7-41" value="&lt;font style=&quot;font-size: 48px;&quot;&gt;No&lt;/font&gt;" style="text;html=1;strokeColor=none;fillColor=none;align=center;verticalAlign=middle;whiteSpace=wrap;rounded=0;" parent="y2vtiE2_3SS2VwUHVPp7-153" vertex="1">
          <mxGeometry x="1710" y="1400" width="210" height="160" as="geometry" />
        </mxCell>
        <mxCell id="y2vtiE2_3SS2VwUHVPp7-44" value="&lt;font style=&quot;font-size: 48px;&quot;&gt;Yes&lt;/font&gt;" style="text;html=1;strokeColor=none;fillColor=none;align=center;verticalAlign=middle;whiteSpace=wrap;rounded=0;" parent="y2vtiE2_3SS2VwUHVPp7-153" vertex="1">
          <mxGeometry x="2790" y="1360" width="260" height="170" as="geometry" />
        </mxCell>
        <mxCell id="y2vtiE2_3SS2VwUHVPp7-46" value="&lt;font style=&quot;font-size: 48px;&quot;&gt;SPM&amp;nbsp; Selected Any Activity&lt;/font&gt;" style="rhombus;whiteSpace=wrap;html=1;fillColor=#d5e8d4;strokeColor=#82b366;" parent="y2vtiE2_3SS2VwUHVPp7-153" vertex="1">
          <mxGeometry x="1950" y="3030" width="730" height="670" as="geometry" />
        </mxCell>
        <mxCell id="y2vtiE2_3SS2VwUHVPp7-57" style="edgeStyle=orthogonalEdgeStyle;rounded=0;orthogonalLoop=1;jettySize=auto;html=1;entryX=0.5;entryY=0;entryDx=0;entryDy=0;strokeWidth=10;" parent="y2vtiE2_3SS2VwUHVPp7-153" source="y2vtiE2_3SS2VwUHVPp7-30" target="y2vtiE2_3SS2VwUHVPp7-46" edge="1">
          <mxGeometry relative="1" as="geometry">
            <Array as="points">
              <mxPoint x="685" y="2780" />
              <mxPoint x="2315" y="2780" />
            </Array>
          </mxGeometry>
        </mxCell>
        <mxCell id="y2vtiE2_3SS2VwUHVPp7-47" value="&lt;font style=&quot;font-size: 48px;&quot;&gt;Yes&lt;/font&gt;" style="text;html=1;strokeColor=none;fillColor=none;align=center;verticalAlign=middle;whiteSpace=wrap;rounded=0;" parent="y2vtiE2_3SS2VwUHVPp7-153" vertex="1">
          <mxGeometry x="2600" y="3190" width="260" height="170" as="geometry" />
        </mxCell>
        <mxCell id="y2vtiE2_3SS2VwUHVPp7-48" value="&lt;font style=&quot;font-size: 48px;&quot;&gt;No&lt;/font&gt;" style="text;html=1;strokeColor=none;fillColor=none;align=center;verticalAlign=middle;whiteSpace=wrap;rounded=0;" parent="y2vtiE2_3SS2VwUHVPp7-153" vertex="1">
          <mxGeometry x="1750" y="3335" width="210" height="160" as="geometry" />
        </mxCell>
        <mxCell id="y2vtiE2_3SS2VwUHVPp7-49" value="&lt;font style=&quot;font-size: 48px;&quot;&gt;If SPM want log out System&lt;/font&gt;" style="rhombus;whiteSpace=wrap;html=1;fillColor=#d5e8d4;strokeColor=#82b366;" parent="y2vtiE2_3SS2VwUHVPp7-153" vertex="1">
          <mxGeometry x="1580" y="3910" width="730" height="670" as="geometry" />
        </mxCell>
        <mxCell id="y2vtiE2_3SS2VwUHVPp7-51" style="edgeStyle=orthogonalEdgeStyle;rounded=0;orthogonalLoop=1;jettySize=auto;html=1;exitX=0;exitY=0.5;exitDx=0;exitDy=0;entryX=0.5;entryY=0;entryDx=0;entryDy=0;strokeWidth=10;" parent="y2vtiE2_3SS2VwUHVPp7-153" source="y2vtiE2_3SS2VwUHVPp7-46" target="y2vtiE2_3SS2VwUHVPp7-49" edge="1">
          <mxGeometry relative="1" as="geometry">
            <Array as="points">
              <mxPoint x="1945" y="3355" />
            </Array>
          </mxGeometry>
        </mxCell>
        <mxCell id="y2vtiE2_3SS2VwUHVPp7-52" value="&lt;font style=&quot;font-size: 48px;&quot;&gt;Yes&lt;/font&gt;" style="text;html=1;strokeColor=none;fillColor=none;align=center;verticalAlign=middle;whiteSpace=wrap;rounded=0;" parent="y2vtiE2_3SS2VwUHVPp7-153" vertex="1">
          <mxGeometry x="1520" y="4340" width="260" height="170" as="geometry" />
        </mxCell>
        <mxCell id="y2vtiE2_3SS2VwUHVPp7-54" value="" style="ellipse;html=1;shape=endState;fillColor=#000000;strokeColor=#ff0000;" parent="y2vtiE2_3SS2VwUHVPp7-153" vertex="1">
          <mxGeometry x="590" y="4430" width="160" height="160" as="geometry" />
        </mxCell>
        <mxCell id="y2vtiE2_3SS2VwUHVPp7-55" style="edgeStyle=orthogonalEdgeStyle;rounded=0;orthogonalLoop=1;jettySize=auto;html=1;exitX=0;exitY=0.5;exitDx=0;exitDy=0;entryX=0.5;entryY=0;entryDx=0;entryDy=0;strokeWidth=10;" parent="y2vtiE2_3SS2VwUHVPp7-153" source="y2vtiE2_3SS2VwUHVPp7-49" target="y2vtiE2_3SS2VwUHVPp7-54" edge="1">
          <mxGeometry relative="1" as="geometry" />
        </mxCell>
        <mxCell id="y2vtiE2_3SS2VwUHVPp7-62" value="" style="shape=line;html=1;strokeWidth=12;strokeColor=#000000;rotation=90;fillColor=#000000;" parent="y2vtiE2_3SS2VwUHVPp7-153" vertex="1">
          <mxGeometry x="1532.8200000000002" y="5904.07" width="5101.87" height="18.75" as="geometry" />
        </mxCell>
        <mxCell id="y2vtiE2_3SS2VwUHVPp7-67" value="&lt;font style=&quot;font-size: 48px;&quot;&gt;No&lt;/font&gt;" style="text;html=1;strokeColor=none;fillColor=none;align=center;verticalAlign=middle;whiteSpace=wrap;rounded=0;" parent="y2vtiE2_3SS2VwUHVPp7-153" vertex="1">
          <mxGeometry x="2250" y="4310" width="210" height="160" as="geometry" />
        </mxCell>
        <mxCell id="y2vtiE2_3SS2VwUHVPp7-70" value="" style="endArrow=none;html=1;rounded=0;entryX=0.25;entryY=1;entryDx=0;entryDy=0;exitX=0;exitY=0.5;exitDx=0;exitDy=0;exitPerimeter=0;strokeWidth=10;" parent="y2vtiE2_3SS2VwUHVPp7-153" source="y2vtiE2_3SS2VwUHVPp7-62" target="y2vtiE2_3SS2VwUHVPp7-47" edge="1">
          <mxGeometry width="50" height="50" relative="1" as="geometry">
            <mxPoint x="2180" y="4440" as="sourcePoint" />
            <mxPoint x="2230" y="4390" as="targetPoint" />
          </mxGeometry>
        </mxCell>
        <mxCell id="y2vtiE2_3SS2VwUHVPp7-71" value="&lt;p style=&quot;margin-left:1.0in;mso-add-space:auto;&lt;br/&gt;text-indent:-.25in;mso-list:l0 level1 lfo1&quot; class=&quot;MsoListParagraph&quot;&gt;&lt;font style=&quot;font-size: 52px;&quot;&gt;&lt;span style=&quot;line-height: 107%; font-family: &amp;quot;Times New Roman&amp;quot;, serif;&quot;&gt;Delete&lt;br&gt;Customer&lt;/span&gt;&lt;/font&gt;&lt;span style=&quot;font-size:14.0pt;line-height:107%;font-family:&amp;quot;Times New Roman&amp;quot;,serif&quot;&gt;&lt;/span&gt;&lt;/p&gt;" style="rounded=1;whiteSpace=wrap;html=1;arcSize=40;fontColor=#000000;fillColor=#ffffc0;strokeColor=#ff0000;" parent="y2vtiE2_3SS2VwUHVPp7-153" vertex="1">
          <mxGeometry x="2900" y="4386" width="850" height="260" as="geometry" />
        </mxCell>
        <mxCell id="y2vtiE2_3SS2VwUHVPp7-72" value="&lt;p style=&quot;margin-left:1.0in;mso-add-space:auto;&lt;br/&gt;text-indent:-.25in;mso-list:l0 level1 lfo1&quot; class=&quot;MsoListParagraph&quot;&gt;&lt;font style=&quot;font-size: 52px;&quot;&gt;&lt;span style=&quot;line-height: 107%; font-family: &amp;quot;Times New Roman&amp;quot;, serif;&quot;&gt;Delete&lt;br&gt;Supplier&lt;/span&gt;&lt;/font&gt;&lt;span style=&quot;font-size:14.0pt;line-height:107%;font-family:&amp;quot;Times New Roman&amp;quot;,serif&quot;&gt;&lt;/span&gt;&lt;/p&gt;" style="rounded=1;whiteSpace=wrap;html=1;arcSize=40;fontColor=#000000;fillColor=#ffffc0;strokeColor=#ff0000;" parent="y2vtiE2_3SS2VwUHVPp7-153" vertex="1">
          <mxGeometry x="2920" y="6430" width="850" height="260" as="geometry" />
        </mxCell>
        <mxCell id="y2vtiE2_3SS2VwUHVPp7-73" value="&lt;p style=&quot;margin-left:1.0in;mso-add-space:auto;&lt;br/&gt;text-indent:-.25in;mso-list:l0 level1 lfo1&quot; class=&quot;MsoListParagraph&quot;&gt;&lt;font style=&quot;font-size: 52px;&quot;&gt;&lt;span style=&quot;line-height: 107%; font-family: &amp;quot;Times New Roman&amp;quot;, serif;&quot;&gt;View&lt;br&gt;Customer Details&lt;/span&gt;&lt;/font&gt;&lt;span style=&quot;font-size:14.0pt;line-height:107%;&lt;br/&gt;font-family:&amp;quot;Times New Roman&amp;quot;,serif&quot;&gt;&lt;/span&gt;&lt;/p&gt;" style="rounded=1;whiteSpace=wrap;html=1;arcSize=40;fontColor=#000000;fillColor=#ffffc0;strokeColor=#ff0000;" parent="y2vtiE2_3SS2VwUHVPp7-153" vertex="1">
          <mxGeometry x="2930" y="5430" width="850" height="260" as="geometry" />
        </mxCell>
        <mxCell id="F2ZYFkoD8W8sICeqgkWs-3" style="edgeStyle=orthogonalEdgeStyle;rounded=0;orthogonalLoop=1;jettySize=auto;html=1;exitX=0;exitY=0.5;exitDx=0;exitDy=0;entryX=0.5;entryY=0;entryDx=0;entryDy=0;strokeWidth=10;" edge="1" parent="y2vtiE2_3SS2VwUHVPp7-153" source="y2vtiE2_3SS2VwUHVPp7-74" target="y2vtiE2_3SS2VwUHVPp7-116">
          <mxGeometry relative="1" as="geometry">
            <Array as="points">
              <mxPoint x="2600" y="6060" />
              <mxPoint x="2600" y="6570" />
              <mxPoint x="670" y="6570" />
            </Array>
          </mxGeometry>
        </mxCell>
        <mxCell id="y2vtiE2_3SS2VwUHVPp7-74" value="&lt;p style=&quot;margin-left:1.0in;mso-add-space:auto;&lt;br/&gt;text-indent:-.25in;mso-list:l0 level1 lfo1&quot; class=&quot;MsoListParagraph&quot;&gt;&lt;font style=&quot;font-size: 52px;&quot;&gt;&lt;span style=&quot;line-height: 107%; font-family: &amp;quot;Times New Roman&amp;quot;, serif;&quot;&gt;Add&lt;br&gt;Supplier&lt;/span&gt;&lt;/font&gt;&lt;span style=&quot;font-size:14.0pt;line-height:107%;font-family:&amp;quot;Times New Roman&amp;quot;,serif&quot;&gt;&lt;/span&gt;&lt;/p&gt;" style="rounded=1;whiteSpace=wrap;html=1;arcSize=40;fontColor=#000000;fillColor=#ffffc0;strokeColor=#ff0000;" parent="y2vtiE2_3SS2VwUHVPp7-153" vertex="1">
          <mxGeometry x="2920" y="5930" width="850" height="260" as="geometry" />
        </mxCell>
        <mxCell id="y2vtiE2_3SS2VwUHVPp7-75" value="&lt;p style=&quot;margin-left:1.0in;mso-add-space:auto;&lt;br/&gt;text-indent:-.25in;mso-list:l0 level1 lfo1&quot; class=&quot;MsoListParagraph&quot;&gt;&lt;font style=&quot;font-size: 52px;&quot;&gt;&lt;span style=&quot;line-height: 107%; font-family: &amp;quot;Times New Roman&amp;quot;, serif;&quot;&gt;View&lt;br&gt;Supplier Details&lt;/span&gt;&lt;/font&gt;&lt;span style=&quot;font-size:14.0pt;line-height:107%;&lt;br/&gt;font-family:&amp;quot;Times New Roman&amp;quot;,serif&quot;&gt;&lt;/span&gt;&lt;/p&gt;" style="rounded=1;whiteSpace=wrap;html=1;arcSize=40;fontColor=#000000;fillColor=#ffffc0;strokeColor=#ff0000;" parent="y2vtiE2_3SS2VwUHVPp7-153" vertex="1">
          <mxGeometry x="2920" y="6930" width="850" height="260" as="geometry" />
        </mxCell>
        <mxCell id="y2vtiE2_3SS2VwUHVPp7-76" value="&lt;p style=&quot;margin-left:1.0in;mso-add-space:auto;&lt;br/&gt;text-indent:-.25in;mso-list:l0 level1 lfo1&quot; class=&quot;MsoListParagraph&quot;&gt;&lt;font style=&quot;font-size: 52px;&quot;&gt;&lt;span style=&quot;line-height: 107%; font-family: &amp;quot;Times New Roman&amp;quot;, serif;&quot;&gt;Update&lt;br&gt;Supplier Details&lt;/span&gt;&lt;/font&gt;&lt;span style=&quot;font-size:14.0pt;line-height:107%;&lt;br/&gt;font-family:&amp;quot;Times New Roman&amp;quot;,serif&quot;&gt;&lt;/span&gt;&lt;/p&gt;" style="rounded=1;whiteSpace=wrap;html=1;arcSize=40;fontColor=#000000;fillColor=#ffffc0;strokeColor=#ff0000;" parent="y2vtiE2_3SS2VwUHVPp7-153" vertex="1">
          <mxGeometry x="2910" y="7430" width="850" height="260" as="geometry" />
        </mxCell>
        <mxCell id="y2vtiE2_3SS2VwUHVPp7-77" value="&lt;p style=&quot;margin-left:1.0in;mso-add-space:auto;&lt;br/&gt;text-indent:-.25in;mso-list:l0 level1 lfo1&quot; class=&quot;MsoListParagraph&quot;&gt;&lt;font style=&quot;font-size: 52px;&quot;&gt;&lt;span style=&quot;line-height: 107%; font-family: &amp;quot;Times New Roman&amp;quot;, serif;&quot;&gt;Mange&lt;br&gt;Sales Invoice&lt;/span&gt;&lt;/font&gt;&lt;/p&gt;" style="rounded=1;whiteSpace=wrap;html=1;arcSize=40;fontColor=#000000;fillColor=#ffffc0;strokeColor=#ff0000;" parent="y2vtiE2_3SS2VwUHVPp7-153" vertex="1">
          <mxGeometry x="2920" y="7890" width="850" height="260" as="geometry" />
        </mxCell>
        <mxCell id="y2vtiE2_3SS2VwUHVPp7-79" value="" style="endArrow=classic;html=1;rounded=0;strokeWidth=15;entryX=1;entryY=0.5;entryDx=0;entryDy=0;exitX=0.133;exitY=0.7;exitDx=0;exitDy=0;exitPerimeter=0;" parent="y2vtiE2_3SS2VwUHVPp7-153" source="y2vtiE2_3SS2VwUHVPp7-62" target="y2vtiE2_3SS2VwUHVPp7-29" edge="1">
          <mxGeometry width="50" height="50" relative="1" as="geometry">
            <mxPoint x="4060" y="4040" as="sourcePoint" />
            <mxPoint x="2230" y="4390" as="targetPoint" />
          </mxGeometry>
        </mxCell>
        <mxCell id="y2vtiE2_3SS2VwUHVPp7-80" value="" style="endArrow=classic;html=1;rounded=0;strokeWidth=15;entryX=1;entryY=0.5;entryDx=0;entryDy=0;" parent="y2vtiE2_3SS2VwUHVPp7-153" edge="1">
          <mxGeometry width="50" height="50" relative="1" as="geometry">
            <mxPoint x="4070" y="5018" as="sourcePoint" />
            <mxPoint x="3750" y="5018" as="targetPoint" />
          </mxGeometry>
        </mxCell>
        <mxCell id="y2vtiE2_3SS2VwUHVPp7-81" value="" style="endArrow=classic;html=1;rounded=0;strokeWidth=15;entryX=1;entryY=0.5;entryDx=0;entryDy=0;" parent="y2vtiE2_3SS2VwUHVPp7-153" edge="1">
          <mxGeometry width="50" height="50" relative="1" as="geometry">
            <mxPoint x="4070" y="4538" as="sourcePoint" />
            <mxPoint x="3750" y="4538" as="targetPoint" />
          </mxGeometry>
        </mxCell>
        <mxCell id="y2vtiE2_3SS2VwUHVPp7-82" value="" style="endArrow=classic;html=1;rounded=0;strokeWidth=15;entryX=1;entryY=0.5;entryDx=0;entryDy=0;" parent="y2vtiE2_3SS2VwUHVPp7-153" edge="1">
          <mxGeometry width="50" height="50" relative="1" as="geometry">
            <mxPoint x="4090" y="5578" as="sourcePoint" />
            <mxPoint x="3770" y="5578" as="targetPoint" />
          </mxGeometry>
        </mxCell>
        <mxCell id="y2vtiE2_3SS2VwUHVPp7-83" value="" style="endArrow=classic;html=1;rounded=0;strokeWidth=15;entryX=1;entryY=0.5;entryDx=0;entryDy=0;" parent="y2vtiE2_3SS2VwUHVPp7-153" edge="1">
          <mxGeometry width="50" height="50" relative="1" as="geometry">
            <mxPoint x="4090" y="6070" as="sourcePoint" />
            <mxPoint x="3770" y="6070" as="targetPoint" />
          </mxGeometry>
        </mxCell>
        <mxCell id="y2vtiE2_3SS2VwUHVPp7-84" value="" style="endArrow=classic;html=1;rounded=0;strokeWidth=15;entryX=1;entryY=0.5;entryDx=0;entryDy=0;" parent="y2vtiE2_3SS2VwUHVPp7-153" edge="1">
          <mxGeometry width="50" height="50" relative="1" as="geometry">
            <mxPoint x="4090" y="6550" as="sourcePoint" />
            <mxPoint x="3770" y="6550" as="targetPoint" />
          </mxGeometry>
        </mxCell>
        <mxCell id="y2vtiE2_3SS2VwUHVPp7-85" value="" style="endArrow=classic;html=1;rounded=0;strokeWidth=15;entryX=1;entryY=0.5;entryDx=0;entryDy=0;" parent="y2vtiE2_3SS2VwUHVPp7-153" edge="1">
          <mxGeometry width="50" height="50" relative="1" as="geometry">
            <mxPoint x="4080" y="7050" as="sourcePoint" />
            <mxPoint x="3760" y="7050" as="targetPoint" />
          </mxGeometry>
        </mxCell>
        <mxCell id="y2vtiE2_3SS2VwUHVPp7-86" value="" style="endArrow=classic;html=1;rounded=0;strokeWidth=15;entryX=1;entryY=0.5;entryDx=0;entryDy=0;" parent="y2vtiE2_3SS2VwUHVPp7-153" edge="1">
          <mxGeometry width="50" height="50" relative="1" as="geometry">
            <mxPoint x="4090" y="7550" as="sourcePoint" />
            <mxPoint x="3770" y="7550" as="targetPoint" />
          </mxGeometry>
        </mxCell>
        <mxCell id="y2vtiE2_3SS2VwUHVPp7-87" value="" style="endArrow=classic;html=1;rounded=0;strokeWidth=15;entryX=1;entryY=0.5;entryDx=0;entryDy=0;" parent="y2vtiE2_3SS2VwUHVPp7-153" edge="1">
          <mxGeometry width="50" height="50" relative="1" as="geometry">
            <mxPoint x="4090" y="8030" as="sourcePoint" />
            <mxPoint x="3770" y="8030" as="targetPoint" />
          </mxGeometry>
        </mxCell>
        <mxCell id="y2vtiE2_3SS2VwUHVPp7-89" value="&lt;p style=&quot;margin-left:1.0in;mso-add-space:auto;&lt;br/&gt;text-indent:-.25in;mso-list:l0 level1 lfo1&quot; class=&quot;MsoListParagraph&quot;&gt;1.&lt;span style=&quot;line-height: 107%; font-family: &amp;quot;Times New Roman&amp;quot;, serif;&quot;&gt;&lt;/span&gt;&lt;span style=&quot;line-height: 107%; font-family: &amp;quot;Times New Roman&amp;quot;, serif;&quot;&gt;&lt;font style=&quot;font-size: 52px;&quot;&gt;Manage&lt;br/&gt;Supplier Invoice.&lt;/font&gt;&lt;span style=&quot;font-size: 12pt;&quot;&gt;&lt;/span&gt;&lt;/span&gt;&lt;/p&gt;" style="rounded=1;whiteSpace=wrap;html=1;arcSize=40;fontColor=#000000;fillColor=#ffffc0;strokeColor=#ff0000;" parent="y2vtiE2_3SS2VwUHVPp7-153" vertex="1">
          <mxGeometry x="2910" y="8330" width="850" height="260" as="geometry" />
        </mxCell>
        <mxCell id="y2vtiE2_3SS2VwUHVPp7-90" value="" style="endArrow=classic;html=1;rounded=0;strokeWidth=15;entryX=1;entryY=0.5;entryDx=0;entryDy=0;" parent="y2vtiE2_3SS2VwUHVPp7-153" edge="1">
          <mxGeometry width="50" height="50" relative="1" as="geometry">
            <mxPoint x="4090" y="8470" as="sourcePoint" />
            <mxPoint x="3770" y="8470" as="targetPoint" />
          </mxGeometry>
        </mxCell>
        <mxCell id="y2vtiE2_3SS2VwUHVPp7-92" value="" style="rounded=0;whiteSpace=wrap;html=1;strokeColor=#000000;fillColor=#1C1C1C;" parent="y2vtiE2_3SS2VwUHVPp7-153" vertex="1">
          <mxGeometry x="1850" y="8950" width="1680" height="30" as="geometry" />
        </mxCell>
        <mxCell id="y2vtiE2_3SS2VwUHVPp7-95" value="&lt;font style=&quot;font-size: 52px;&quot;&gt;Print Invoice&lt;/font&gt;" style="rounded=1;whiteSpace=wrap;html=1;arcSize=40;fontColor=#000000;fillColor=#ffffc0;strokeColor=#ff0000;" parent="y2vtiE2_3SS2VwUHVPp7-153" vertex="1">
          <mxGeometry x="1850" y="9440" width="850" height="260" as="geometry" />
        </mxCell>
        <mxCell id="y2vtiE2_3SS2VwUHVPp7-122" style="edgeStyle=orthogonalEdgeStyle;rounded=0;orthogonalLoop=1;jettySize=auto;html=1;entryX=0.25;entryY=0;entryDx=0;entryDy=0;strokeWidth=10;" parent="y2vtiE2_3SS2VwUHVPp7-153" source="y2vtiE2_3SS2VwUHVPp7-92" target="y2vtiE2_3SS2VwUHVPp7-95" edge="1">
          <mxGeometry relative="1" as="geometry">
            <Array as="points">
              <mxPoint x="1860" y="9210" />
              <mxPoint x="2063" y="9210" />
            </Array>
          </mxGeometry>
        </mxCell>
        <mxCell id="y2vtiE2_3SS2VwUHVPp7-96" value="&lt;p style=&quot;margin-left:1.0in;mso-add-space:auto;&lt;br/&gt;text-indent:-.25in;mso-list:l0 level1 lfo1&quot; class=&quot;MsoListParagraph&quot;&gt;&lt;font style=&quot;font-size: 52px;&quot;&gt;Send Invoice Copy To Mail&lt;/font&gt;&lt;/p&gt;" style="rounded=1;whiteSpace=wrap;html=1;arcSize=40;fontColor=#000000;fillColor=#ffffc0;strokeColor=#ff0000;" parent="y2vtiE2_3SS2VwUHVPp7-153" vertex="1">
          <mxGeometry x="2750" y="9430" width="850" height="260" as="geometry" />
        </mxCell>
        <mxCell id="y2vtiE2_3SS2VwUHVPp7-123" style="edgeStyle=orthogonalEdgeStyle;rounded=0;orthogonalLoop=1;jettySize=auto;html=1;strokeWidth=10;" parent="y2vtiE2_3SS2VwUHVPp7-153" source="y2vtiE2_3SS2VwUHVPp7-92" target="y2vtiE2_3SS2VwUHVPp7-96" edge="1">
          <mxGeometry relative="1" as="geometry">
            <Array as="points">
              <mxPoint x="3530" y="9205" />
              <mxPoint x="3175" y="9205" />
            </Array>
          </mxGeometry>
        </mxCell>
        <mxCell id="F2ZYFkoD8W8sICeqgkWs-2" style="edgeStyle=orthogonalEdgeStyle;rounded=0;orthogonalLoop=1;jettySize=auto;html=1;exitX=1;exitY=0.5;exitDx=0;exitDy=0;entryX=0.5;entryY=0;entryDx=0;entryDy=0;strokeWidth=10;" edge="1" parent="y2vtiE2_3SS2VwUHVPp7-153" source="y2vtiE2_3SS2VwUHVPp7-100" target="y2vtiE2_3SS2VwUHVPp7-104">
          <mxGeometry relative="1" as="geometry">
            <Array as="points">
              <mxPoint x="1385" y="4980" />
              <mxPoint x="1385" y="4740" />
              <mxPoint x="2125" y="4740" />
            </Array>
          </mxGeometry>
        </mxCell>
        <mxCell id="y2vtiE2_3SS2VwUHVPp7-100" value="&lt;font style=&quot;font-size: 52px;&quot; face=&quot;Times New Roman, serif&quot;&gt;Enter New Customer Details&lt;/font&gt;" style="rounded=1;whiteSpace=wrap;html=1;arcSize=40;fontColor=#000000;fillColor=#ffffc0;strokeColor=#ff0000;" parent="y2vtiE2_3SS2VwUHVPp7-153" vertex="1">
          <mxGeometry x="160" y="4850" width="850" height="260" as="geometry" />
        </mxCell>
        <mxCell id="y2vtiE2_3SS2VwUHVPp7-104" value="&lt;font style=&quot;font-size: 48px;&quot;&gt;New Customer Details are Valid&lt;/font&gt;" style="rhombus;whiteSpace=wrap;html=1;fillColor=#d5e8d4;strokeColor=#82b366;" parent="y2vtiE2_3SS2VwUHVPp7-153" vertex="1">
          <mxGeometry x="1760" y="4870" width="730" height="670" as="geometry" />
        </mxCell>
        <mxCell id="y2vtiE2_3SS2VwUHVPp7-156" style="edgeStyle=orthogonalEdgeStyle;rounded=0;orthogonalLoop=1;jettySize=auto;html=1;strokeWidth=10;jumpStyle=arc;jumpSize=20;" parent="y2vtiE2_3SS2VwUHVPp7-153" source="y2vtiE2_3SS2VwUHVPp7-105" target="y2vtiE2_3SS2VwUHVPp7-28" edge="1">
          <mxGeometry relative="1" as="geometry">
            <Array as="points">
              <mxPoint x="4380" y="5820" />
              <mxPoint x="4380" y="2920" />
              <mxPoint x="2565" y="2920" />
            </Array>
          </mxGeometry>
        </mxCell>
        <mxCell id="y2vtiE2_3SS2VwUHVPp7-105" value="&lt;font style=&quot;font-size: 52px;&quot; face=&quot;Times New Roman, serif&quot;&gt;Dispplay&amp;nbsp; Massage &quot;Add Success&quot;&lt;/font&gt;" style="rounded=1;whiteSpace=wrap;html=1;arcSize=40;fontColor=#000000;fillColor=#ffffc0;strokeColor=#ff0000;" parent="y2vtiE2_3SS2VwUHVPp7-153" vertex="1">
          <mxGeometry x="2000" y="5690" width="850" height="260" as="geometry" />
        </mxCell>
        <mxCell id="y2vtiE2_3SS2VwUHVPp7-112" style="edgeStyle=orthogonalEdgeStyle;rounded=0;orthogonalLoop=1;jettySize=auto;html=1;strokeWidth=10;" parent="y2vtiE2_3SS2VwUHVPp7-153" source="y2vtiE2_3SS2VwUHVPp7-106" target="y2vtiE2_3SS2VwUHVPp7-100" edge="1">
          <mxGeometry relative="1" as="geometry" />
        </mxCell>
        <mxCell id="y2vtiE2_3SS2VwUHVPp7-106" value="&lt;font style=&quot;font-size: 52px;&quot; face=&quot;Times New Roman, serif&quot;&gt;Display Error Masage &quot;Please Entter Valid Details&quot;&lt;/font&gt;" style="rounded=1;whiteSpace=wrap;html=1;arcSize=40;fontColor=#000000;fillColor=#ffffc0;strokeColor=#ff0000;" parent="y2vtiE2_3SS2VwUHVPp7-153" vertex="1">
          <mxGeometry x="1630" y="6240" width="850" height="260" as="geometry" />
        </mxCell>
        <mxCell id="y2vtiE2_3SS2VwUHVPp7-108" style="edgeStyle=orthogonalEdgeStyle;rounded=0;orthogonalLoop=1;jettySize=auto;html=1;exitX=0;exitY=0.5;exitDx=0;exitDy=0;entryX=0.25;entryY=0;entryDx=0;entryDy=0;strokeWidth=10;" parent="y2vtiE2_3SS2VwUHVPp7-153" source="y2vtiE2_3SS2VwUHVPp7-104" target="y2vtiE2_3SS2VwUHVPp7-106" edge="1">
          <mxGeometry relative="1" as="geometry" />
        </mxCell>
        <mxCell id="y2vtiE2_3SS2VwUHVPp7-109" value="&lt;font style=&quot;font-size: 48px;&quot;&gt;No&lt;/font&gt;" style="text;html=1;strokeColor=none;fillColor=none;align=center;verticalAlign=middle;whiteSpace=wrap;rounded=0;" parent="y2vtiE2_3SS2VwUHVPp7-153" vertex="1">
          <mxGeometry x="1620" y="5040" width="210" height="160" as="geometry" />
        </mxCell>
        <mxCell id="y2vtiE2_3SS2VwUHVPp7-111" style="edgeStyle=orthogonalEdgeStyle;rounded=0;orthogonalLoop=1;jettySize=auto;html=1;exitX=0.5;exitY=1;exitDx=0;exitDy=0;strokeWidth=10;" parent="y2vtiE2_3SS2VwUHVPp7-153" source="y2vtiE2_3SS2VwUHVPp7-110" target="y2vtiE2_3SS2VwUHVPp7-105" edge="1">
          <mxGeometry relative="1" as="geometry">
            <Array as="points">
              <mxPoint x="2510" y="5550" />
              <mxPoint x="2510" y="5550" />
            </Array>
          </mxGeometry>
        </mxCell>
        <mxCell id="y2vtiE2_3SS2VwUHVPp7-110" value="&lt;font style=&quot;font-size: 48px;&quot;&gt;Yes&lt;/font&gt;" style="text;html=1;strokeColor=none;fillColor=none;align=center;verticalAlign=middle;whiteSpace=wrap;rounded=0;" parent="y2vtiE2_3SS2VwUHVPp7-153" vertex="1">
          <mxGeometry x="2380" y="5030" width="260" height="170" as="geometry" />
        </mxCell>
        <mxCell id="y2vtiE2_3SS2VwUHVPp7-114" value="&lt;font style=&quot;font-size: 48px;&quot;&gt;New Supplyer Details are Valid&lt;/font&gt;" style="rhombus;whiteSpace=wrap;html=1;fillColor=#d5e8d4;strokeColor=#82b366;" parent="y2vtiE2_3SS2VwUHVPp7-153" vertex="1">
          <mxGeometry x="1790" y="6970" width="730" height="670" as="geometry" />
        </mxCell>
        <mxCell id="F2ZYFkoD8W8sICeqgkWs-4" style="edgeStyle=orthogonalEdgeStyle;rounded=0;orthogonalLoop=1;jettySize=auto;html=1;exitX=1;exitY=0.5;exitDx=0;exitDy=0;entryX=0.5;entryY=0;entryDx=0;entryDy=0;strokeWidth=10;" edge="1" parent="y2vtiE2_3SS2VwUHVPp7-153" source="y2vtiE2_3SS2VwUHVPp7-116" target="y2vtiE2_3SS2VwUHVPp7-114">
          <mxGeometry relative="1" as="geometry">
            <Array as="points">
              <mxPoint x="1442" y="7040" />
              <mxPoint x="1442" y="6670" />
              <mxPoint x="2155" y="6670" />
            </Array>
          </mxGeometry>
        </mxCell>
        <mxCell id="y2vtiE2_3SS2VwUHVPp7-116" value="&lt;font style=&quot;font-size: 52px;&quot; face=&quot;Times New Roman, serif&quot;&gt;Enter New Supplier Details&lt;/font&gt;" style="rounded=1;whiteSpace=wrap;html=1;arcSize=40;fontColor=#000000;fillColor=#ffffc0;strokeColor=#ff0000;" parent="y2vtiE2_3SS2VwUHVPp7-153" vertex="1">
          <mxGeometry x="245" y="6910" width="850" height="260" as="geometry" />
        </mxCell>
        <mxCell id="y2vtiE2_3SS2VwUHVPp7-118" value="&lt;font style=&quot;font-size: 48px;&quot;&gt;No&lt;/font&gt;" style="text;html=1;strokeColor=none;fillColor=none;align=center;verticalAlign=middle;whiteSpace=wrap;rounded=0;" parent="y2vtiE2_3SS2VwUHVPp7-153" vertex="1">
          <mxGeometry x="1630" y="7090" width="210" height="160" as="geometry" />
        </mxCell>
        <mxCell id="y2vtiE2_3SS2VwUHVPp7-119" value="&lt;font style=&quot;font-size: 48px;&quot;&gt;Yes&lt;/font&gt;" style="text;html=1;strokeColor=none;fillColor=none;align=center;verticalAlign=middle;whiteSpace=wrap;rounded=0;" parent="y2vtiE2_3SS2VwUHVPp7-153" vertex="1">
          <mxGeometry x="2450" y="7040" width="260" height="170" as="geometry" />
        </mxCell>
        <mxCell id="y2vtiE2_3SS2VwUHVPp7-155" style="edgeStyle=orthogonalEdgeStyle;rounded=0;orthogonalLoop=1;jettySize=auto;html=1;entryX=0.913;entryY=0.999;entryDx=0;entryDy=0;strokeWidth=10;entryPerimeter=0;jumpStyle=arc;jumpSize=20;" parent="y2vtiE2_3SS2VwUHVPp7-153" source="y2vtiE2_3SS2VwUHVPp7-120" target="y2vtiE2_3SS2VwUHVPp7-28" edge="1">
          <mxGeometry relative="1" as="geometry">
            <Array as="points">
              <mxPoint x="4680" y="7800" />
              <mxPoint x="4680" y="2670" />
            </Array>
          </mxGeometry>
        </mxCell>
        <mxCell id="y2vtiE2_3SS2VwUHVPp7-120" value="&lt;font style=&quot;font-size: 52px;&quot; face=&quot;Times New Roman, serif&quot;&gt;Dispplay&amp;nbsp; Massage &quot;Add Success&quot;&lt;/font&gt;" style="rounded=1;whiteSpace=wrap;html=1;arcSize=40;fontColor=#000000;fillColor=#ffffc0;strokeColor=#ff0000;" parent="y2vtiE2_3SS2VwUHVPp7-153" vertex="1">
          <mxGeometry x="2050" y="7670" width="850" height="260" as="geometry" />
        </mxCell>
        <mxCell id="y2vtiE2_3SS2VwUHVPp7-126" style="edgeStyle=orthogonalEdgeStyle;rounded=0;orthogonalLoop=1;jettySize=auto;html=1;exitX=1;exitY=0.5;exitDx=0;exitDy=0;entryX=0.75;entryY=0;entryDx=0;entryDy=0;strokeWidth=10;" parent="y2vtiE2_3SS2VwUHVPp7-153" source="y2vtiE2_3SS2VwUHVPp7-114" target="y2vtiE2_3SS2VwUHVPp7-120" edge="1">
          <mxGeometry relative="1" as="geometry" />
        </mxCell>
        <mxCell id="y2vtiE2_3SS2VwUHVPp7-154" style="edgeStyle=orthogonalEdgeStyle;rounded=0;orthogonalLoop=1;jettySize=auto;html=1;strokeWidth=10;" parent="y2vtiE2_3SS2VwUHVPp7-153" source="y2vtiE2_3SS2VwUHVPp7-121" target="y2vtiE2_3SS2VwUHVPp7-116" edge="1">
          <mxGeometry relative="1" as="geometry" />
        </mxCell>
        <mxCell id="y2vtiE2_3SS2VwUHVPp7-121" value="&lt;font style=&quot;font-size: 52px;&quot; face=&quot;Times New Roman, serif&quot;&gt;Display Error Masage &quot;Please Entter Valid Details&quot;&lt;/font&gt;" style="rounded=1;whiteSpace=wrap;html=1;arcSize=40;fontColor=#000000;fillColor=#ffffc0;strokeColor=#ff0000;" parent="y2vtiE2_3SS2VwUHVPp7-153" vertex="1">
          <mxGeometry x="1630" y="8170" width="850" height="260" as="geometry" />
        </mxCell>
        <mxCell id="y2vtiE2_3SS2VwUHVPp7-124" style="edgeStyle=orthogonalEdgeStyle;rounded=0;orthogonalLoop=1;jettySize=auto;html=1;entryX=0.452;entryY=-0.167;entryDx=0;entryDy=0;entryPerimeter=0;strokeWidth=10;" parent="y2vtiE2_3SS2VwUHVPp7-153" source="y2vtiE2_3SS2VwUHVPp7-77" target="y2vtiE2_3SS2VwUHVPp7-92" edge="1">
          <mxGeometry relative="1" as="geometry">
            <Array as="points">
              <mxPoint x="2609" y="8020" />
            </Array>
          </mxGeometry>
        </mxCell>
        <mxCell id="y2vtiE2_3SS2VwUHVPp7-127" style="edgeStyle=orthogonalEdgeStyle;rounded=0;orthogonalLoop=1;jettySize=auto;html=1;exitX=0;exitY=0.5;exitDx=0;exitDy=0;entryX=0.106;entryY=0;entryDx=0;entryDy=0;entryPerimeter=0;strokeWidth=10;" parent="y2vtiE2_3SS2VwUHVPp7-153" source="y2vtiE2_3SS2VwUHVPp7-114" target="y2vtiE2_3SS2VwUHVPp7-121" edge="1">
          <mxGeometry relative="1" as="geometry" />
        </mxCell>
        <mxCell id="y2vtiE2_3SS2VwUHVPp7-128" value="" style="rounded=0;whiteSpace=wrap;html=1;strokeColor=#000000;fillColor=#1C1C1C;" parent="y2vtiE2_3SS2VwUHVPp7-153" vertex="1">
          <mxGeometry x="3680" y="8950" width="1680" height="30" as="geometry" />
        </mxCell>
        <mxCell id="y2vtiE2_3SS2VwUHVPp7-129" style="edgeStyle=orthogonalEdgeStyle;rounded=0;orthogonalLoop=1;jettySize=auto;html=1;entryX=0.5;entryY=0;entryDx=0;entryDy=0;strokeWidth=10;" parent="y2vtiE2_3SS2VwUHVPp7-153" source="y2vtiE2_3SS2VwUHVPp7-89" target="y2vtiE2_3SS2VwUHVPp7-128" edge="1">
          <mxGeometry relative="1" as="geometry" />
        </mxCell>
        <mxCell id="y2vtiE2_3SS2VwUHVPp7-130" value="&lt;font style=&quot;font-size: 52px;&quot;&gt;Print Invoice&lt;/font&gt;" style="rounded=1;whiteSpace=wrap;html=1;arcSize=40;fontColor=#000000;fillColor=#ffffc0;strokeColor=#ff0000;" parent="y2vtiE2_3SS2VwUHVPp7-153" vertex="1">
          <mxGeometry x="3670" y="9440" width="850" height="260" as="geometry" />
        </mxCell>
        <mxCell id="y2vtiE2_3SS2VwUHVPp7-131" value="&lt;p style=&quot;margin-left:1.0in;mso-add-space:auto;&lt;br/&gt;text-indent:-.25in;mso-list:l0 level1 lfo1&quot; class=&quot;MsoListParagraph&quot;&gt;&lt;font style=&quot;font-size: 52px;&quot;&gt;Send Invoice Copy To Mail&lt;/font&gt;&lt;/p&gt;" style="rounded=1;whiteSpace=wrap;html=1;arcSize=40;fontColor=#000000;fillColor=#ffffc0;strokeColor=#ff0000;" parent="y2vtiE2_3SS2VwUHVPp7-153" vertex="1">
          <mxGeometry x="4610" y="9420" width="850" height="260" as="geometry" />
        </mxCell>
        <mxCell id="y2vtiE2_3SS2VwUHVPp7-132" style="edgeStyle=orthogonalEdgeStyle;rounded=0;orthogonalLoop=1;jettySize=auto;html=1;entryX=0.096;entryY=0.023;entryDx=0;entryDy=0;entryPerimeter=0;strokeWidth=10;" parent="y2vtiE2_3SS2VwUHVPp7-153" source="y2vtiE2_3SS2VwUHVPp7-128" target="y2vtiE2_3SS2VwUHVPp7-130" edge="1">
          <mxGeometry relative="1" as="geometry">
            <Array as="points">
              <mxPoint x="3690" y="9210" />
              <mxPoint x="3752" y="9210" />
            </Array>
          </mxGeometry>
        </mxCell>
        <mxCell id="y2vtiE2_3SS2VwUHVPp7-133" style="edgeStyle=orthogonalEdgeStyle;rounded=0;orthogonalLoop=1;jettySize=auto;html=1;exitX=1;exitY=0.5;exitDx=0;exitDy=0;entryX=0.904;entryY=0.008;entryDx=0;entryDy=0;entryPerimeter=0;strokeWidth=8;" parent="y2vtiE2_3SS2VwUHVPp7-153" source="y2vtiE2_3SS2VwUHVPp7-128" target="y2vtiE2_3SS2VwUHVPp7-131" edge="1">
          <mxGeometry relative="1" as="geometry" />
        </mxCell>
        <mxCell id="y2vtiE2_3SS2VwUHVPp7-151" style="edgeStyle=orthogonalEdgeStyle;rounded=0;orthogonalLoop=1;jettySize=auto;html=1;strokeWidth=10;jumpStyle=arc;jumpSize=20;" parent="y2vtiE2_3SS2VwUHVPp7-153" source="y2vtiE2_3SS2VwUHVPp7-138" edge="1">
          <mxGeometry relative="1" as="geometry">
            <mxPoint x="4470" y="6083.333333333333" as="targetPoint" />
            <Array as="points">
              <mxPoint x="2755" y="10740" />
              <mxPoint x="5560" y="10740" />
              <mxPoint x="5560" y="6470" />
              <mxPoint x="4470" y="6470" />
            </Array>
          </mxGeometry>
        </mxCell>
        <mxCell id="y2vtiE2_3SS2VwUHVPp7-138" value="&lt;font style=&quot;font-size: 52px;&quot;&gt;Print Invoice&lt;/font&gt;" style="rounded=1;whiteSpace=wrap;html=1;arcSize=40;fontColor=#000000;fillColor=#ffffc0;strokeColor=#ff0000;" parent="y2vtiE2_3SS2VwUHVPp7-153" vertex="1">
          <mxGeometry x="2330" y="10210" width="850" height="260" as="geometry" />
        </mxCell>
        <mxCell id="y2vtiE2_3SS2VwUHVPp7-152" style="edgeStyle=orthogonalEdgeStyle;rounded=0;orthogonalLoop=1;jettySize=auto;html=1;strokeWidth=10;jumpStyle=arc;jumpSize=20;" parent="y2vtiE2_3SS2VwUHVPp7-153" source="y2vtiE2_3SS2VwUHVPp7-139" edge="1">
          <mxGeometry relative="1" as="geometry">
            <mxPoint x="4910" y="6066.666666666667" as="targetPoint" />
            <Array as="points">
              <mxPoint x="4635" y="10600" />
              <mxPoint x="5750" y="10600" />
              <mxPoint x="5750" y="7380" />
              <mxPoint x="4910" y="7380" />
            </Array>
          </mxGeometry>
        </mxCell>
        <mxCell id="y2vtiE2_3SS2VwUHVPp7-139" value="&lt;font style=&quot;font-size: 52px;&quot;&gt;Print Invoice&lt;/font&gt;" style="rounded=1;whiteSpace=wrap;html=1;arcSize=40;fontColor=#000000;fillColor=#ffffc0;strokeColor=#ff0000;" parent="y2vtiE2_3SS2VwUHVPp7-153" vertex="1">
          <mxGeometry x="4210" y="10170" width="850" height="260" as="geometry" />
        </mxCell>
        <mxCell id="y2vtiE2_3SS2VwUHVPp7-140" value="" style="rounded=0;whiteSpace=wrap;html=1;strokeColor=#000000;fillColor=#1C1C1C;" parent="y2vtiE2_3SS2VwUHVPp7-153" vertex="1">
          <mxGeometry x="1870" y="9940" width="1680" height="30" as="geometry" />
        </mxCell>
        <mxCell id="y2vtiE2_3SS2VwUHVPp7-141" value="" style="rounded=0;whiteSpace=wrap;html=1;strokeColor=#000000;fillColor=#1C1C1C;" parent="y2vtiE2_3SS2VwUHVPp7-153" vertex="1">
          <mxGeometry x="3740" y="9950" width="1680" height="30" as="geometry" />
        </mxCell>
        <mxCell id="y2vtiE2_3SS2VwUHVPp7-144" style="edgeStyle=orthogonalEdgeStyle;rounded=0;orthogonalLoop=1;jettySize=auto;html=1;entryX=0;entryY=0;entryDx=0;entryDy=0;strokeWidth=10;" parent="y2vtiE2_3SS2VwUHVPp7-153" source="y2vtiE2_3SS2VwUHVPp7-95" target="y2vtiE2_3SS2VwUHVPp7-140" edge="1">
          <mxGeometry relative="1" as="geometry" />
        </mxCell>
        <mxCell id="y2vtiE2_3SS2VwUHVPp7-146" style="edgeStyle=orthogonalEdgeStyle;rounded=0;orthogonalLoop=1;jettySize=auto;html=1;entryX=0.443;entryY=-0.001;entryDx=0;entryDy=0;entryPerimeter=0;strokeWidth=8;" parent="y2vtiE2_3SS2VwUHVPp7-153" source="y2vtiE2_3SS2VwUHVPp7-140" target="y2vtiE2_3SS2VwUHVPp7-138" edge="1">
          <mxGeometry relative="1" as="geometry" />
        </mxCell>
        <mxCell id="y2vtiE2_3SS2VwUHVPp7-147" style="edgeStyle=orthogonalEdgeStyle;rounded=0;orthogonalLoop=1;jettySize=auto;html=1;entryX=0.435;entryY=-0.027;entryDx=0;entryDy=0;entryPerimeter=0;strokeWidth=10;" parent="y2vtiE2_3SS2VwUHVPp7-153" source="y2vtiE2_3SS2VwUHVPp7-141" target="y2vtiE2_3SS2VwUHVPp7-139" edge="1">
          <mxGeometry relative="1" as="geometry" />
        </mxCell>
        <mxCell id="y2vtiE2_3SS2VwUHVPp7-150" value="" style="endArrow=classic;html=1;rounded=0;entryX=1;entryY=0.5;entryDx=0;entryDy=0;strokeWidth=10;jumpStyle=arc;jumpSize=20;" parent="y2vtiE2_3SS2VwUHVPp7-153" target="y2vtiE2_3SS2VwUHVPp7-28" edge="1">
          <mxGeometry width="50" height="50" relative="1" as="geometry">
            <mxPoint x="4084" y="6070" as="sourcePoint" />
            <mxPoint x="2770" y="3820" as="targetPoint" />
            <Array as="points">
              <mxPoint x="4910" y="6070" />
              <mxPoint x="4910" y="2540" />
            </Array>
          </mxGeometry>
        </mxCell>
        <mxCell id="y2vtiE2_3SS2VwUHVPp7-145" style="edgeStyle=orthogonalEdgeStyle;rounded=0;orthogonalLoop=1;jettySize=auto;html=1;entryX=1;entryY=0.5;entryDx=0;entryDy=0;strokeWidth=10;" parent="y2vtiE2_3SS2VwUHVPp7-153" source="y2vtiE2_3SS2VwUHVPp7-96" target="y2vtiE2_3SS2VwUHVPp7-140" edge="1">
          <mxGeometry relative="1" as="geometry" />
        </mxCell>
        <mxCell id="y2vtiE2_3SS2VwUHVPp7-142" style="edgeStyle=orthogonalEdgeStyle;rounded=0;orthogonalLoop=1;jettySize=auto;html=1;entryX=0;entryY=0.75;entryDx=0;entryDy=0;strokeWidth=10;" parent="y2vtiE2_3SS2VwUHVPp7-153" source="y2vtiE2_3SS2VwUHVPp7-130" target="y2vtiE2_3SS2VwUHVPp7-141" edge="1">
          <mxGeometry relative="1" as="geometry" />
        </mxCell>
        <mxCell id="y2vtiE2_3SS2VwUHVPp7-143" style="edgeStyle=orthogonalEdgeStyle;rounded=0;orthogonalLoop=1;jettySize=auto;html=1;exitX=0.5;exitY=1;exitDx=0;exitDy=0;entryX=1;entryY=0;entryDx=0;entryDy=0;strokeWidth=10;" parent="y2vtiE2_3SS2VwUHVPp7-153" source="y2vtiE2_3SS2VwUHVPp7-131" target="y2vtiE2_3SS2VwUHVPp7-141" edge="1">
          <mxGeometry relative="1" as="geometry" />
        </mxCell>
        <mxCell id="3VtD4-DwrvKgUTceuaC3-1" style="edgeStyle=orthogonalEdgeStyle;rounded=0;orthogonalLoop=1;jettySize=auto;html=1;exitX=1;exitY=0.5;exitDx=0;exitDy=0;entryX=0.141;entryY=0.962;entryDx=0;entryDy=0;entryPerimeter=0;strokeWidth=10;jumpStyle=arc;jumpSize=18;" parent="y2vtiE2_3SS2VwUHVPp7-153" source="y2vtiE2_3SS2VwUHVPp7-49" target="y2vtiE2_3SS2VwUHVPp7-30" edge="1">
          <mxGeometry relative="1" as="geometry">
            <Array as="points">
              <mxPoint x="2330" y="4245" />
              <mxPoint x="2330" y="3750" />
              <mxPoint x="380" y="3750" />
            </Array>
          </mxGeometry>
        </mxCell>
      </root>
    </mxGraphModel>
  </diagram>
</mxfile>
